<svg width="33" height="33" viewBox="0 0 33 33" fill="none" xmlns="http://www.w3.org/2000/svg">
<g clip-path="url(#clip0_536_3)">
<path d="M6.0256 0C2.68768 0 0 2.68769 0 6.0256V26.9744C0 30.3124 2.68768 33 6.0256 33H17.3797V20.0991H13.9683V15.4543H17.3797V11.4861C17.3797 8.3684 19.3953 5.50585 24.0385 5.50585C25.9184 5.50585 27.3086 5.68633 27.3086 5.68633L27.1992 10.0238C27.1992 10.0238 25.7814 10.0104 24.2344 10.0104C22.56 10.0104 22.2915 10.7819 22.2915 12.0626V15.4544H27.3322L27.1126 20.0991H22.2915V33.0001H26.9744C30.3123 33.0001 33 30.3124 33 26.9745V6.02564C33 2.68772 30.3123 3.3e-05 26.9744 3.3e-05H6.02557L6.0256 0Z" fill="#D8D8D8"/>
</g>
<defs>
<clipPath id="clip0_536_3">
<rect width="33" height="33" fill="white"/>
</clipPath>
</defs>
</svg>
